<?xml version="1.0" encoding="UTF-8"?>
<svg version="1.1" xmlns="http://www.w3.org/2000/svg" width="1106" height="839">
<path d="M0 0 C2.54566846 0.99053248 2.97976598 1.83950443 4.1328125 4.28125 C4.44476562 4.9103125 4.75671875 5.539375 5.078125 6.1875 C6.15717736 9.19796542 6.78613883 12.20363734 7.44970703 15.328125 C8.3889573 19.45655314 9.64215229 23.48512228 10.8828125 27.53125 C11.14819824 28.40595947 11.41358398 29.28066895 11.68701172 30.18188477 C12.45697532 32.71613427 13.23151975 35.2489331 14.0078125 37.78125 C14.38421875 39.01230469 14.760625 40.24335937 15.1484375 41.51171875 C15.78654098 43.59061939 16.4270194 45.66879312 17.0703125 47.74609375 C17.74300314 49.92392968 18.4088763 52.10387585 19.0703125 54.28515625 C19.4209375 55.43886719 19.7715625 56.59257813 20.1328125 57.78125 C20.44476562 58.8125 20.75671875 59.84375 21.078125 60.90625 C21.94567914 63.7247487 21.94567914 63.7247487 23 66.15625 C24.05903548 68.91466799 24.73764039 71.68986571 25.42724609 74.55908203 C26.50448128 78.68229256 27.93943089 82.68931057 29.3203125 86.71875 C31.50758519 93.18623064 33.62130998 99.6569675 35.5078125 106.21875 C37.44157124 112.94179269 39.50749588 119.61624372 41.6328125 126.28125 C41.92220703 127.18931396 42.21160156 128.09737793 42.50976562 129.03295898 C43.83714636 133.1802609 45.18764385 137.31621524 46.59375 141.4375 C47.71642686 144.78459059 48.61977019 148.14405143 49.44433594 151.57861328 C50.66290785 156.34202567 52.17652679 161.02381149 53.6328125 165.71875 C54.15633301 167.41390747 54.15633301 167.41390747 54.69042969 169.14331055 C57.81599319 179.23143752 61.03543895 189.28875236 64.265625 199.34375 C66.69466547 206.91104645 69.03584231 214.50196984 71.296875 222.12109375 C74.17002643 231.78818401 77.13009483 241.42313452 80.1953125 251.03125 C80.69466309 252.60181152 80.69466309 252.60181152 81.20410156 254.20410156 C82.61770506 258.61255548 84.05589369 262.98636214 85.7265625 267.3046875 C87.00612153 270.77666171 87.44350309 273.12144908 87.0078125 276.78125 C84.32424017 279.46482233 83.01355094 279.03147291 79.26019573 279.03194833 C78.02634164 279.03695536 76.79248754 279.0419624 75.52124393 279.04712117 C74.13669519 279.0425668 72.75214705 279.03783038 71.36759949 279.03293228 C69.90261508 279.03501645 68.4376317 279.03797737 66.97265065 279.04174101 C62.91434961 279.04958475 58.85614275 279.04484029 54.79784311 279.03818511 C50.39509811 279.03314026 45.99236825 279.03962013 41.58962536 279.04467177 C33.86247956 279.05191877 26.13536168 279.05166159 18.40821457 279.04657745 C6.91801269 279.03903779 -4.57216547 279.04286674 -16.06236717 279.04899407 C-36.57934668 279.05954707 -57.09631375 279.05860423 -77.61329445 279.05283624 C-95.56760657 279.04781324 -113.52191413 279.04648793 -131.47622681 279.04888153 C-132.66528461 279.0490343 -133.85434242 279.04918707 -135.07943229 279.04934447 C-139.90570797 279.04996711 -144.73198365 279.0506039 -149.55825933 279.051264 C-194.87032114 279.05738764 -240.18237503 279.05182614 -285.49443562 279.0410702 C-325.78763581 279.03157837 -366.08082336 279.0324276 -406.37402344 279.04199219 C-451.60104281 279.05269195 -496.82805518 279.05695343 -542.05507565 279.05076766 C-546.87276649 279.05012619 -551.69045734 279.04950051 -556.50814819 279.04888153 C-558.28762109 279.0486443 -558.28762109 279.0486443 -560.10304294 279.04840227 C-578.04994924 279.0461234 -595.9968505 279.04879518 -613.9437561 279.05384064 C-634.34180681 279.05954645 -654.73984311 279.05815672 -675.13789201 279.04727915 C-686.56635424 279.04138647 -697.99478529 279.04105205 -709.42324675 279.0485715 C-717.04362295 279.05303416 -724.663974 279.05030547 -732.28434646 279.04156196 C-736.63509863 279.03677447 -740.98578856 279.03523915 -745.33653891 279.04237393 C-749.28666333 279.04878611 -753.23666971 279.04616073 -757.18678536 279.0360126 C-758.61445506 279.03398152 -760.04213431 279.03537385 -761.46979652 279.04042448 C-763.39471292 279.04675635 -765.31965977 279.03975971 -767.24457073 279.03194833 C-768.3144623 279.03181281 -769.38435386 279.03167729 -770.48666638 279.03153767 C-772.9921875 278.78125 -772.9921875 278.78125 -774.9921875 276.78125 C-775.8088863 270.80493641 -773.49000505 265.26568465 -771.6796875 259.65625 C-769.80687927 253.77586676 -767.98544673 247.92072791 -766.52734375 241.921875 C-764.86200959 235.0841893 -762.80484596 228.38282803 -760.7421875 221.65625 C-757.4012671 210.68769585 -754.30591297 199.67791514 -751.38476562 188.58886719 C-749.52985056 181.60783979 -747.41841329 174.78886011 -745.046875 167.96875 C-743.68497001 163.85277047 -742.67115917 159.68873723 -741.671875 155.47265625 C-741.05673544 153.03684501 -740.32593188 150.71175595 -739.4921875 148.34375 C-738.27358009 144.83868331 -737.40992513 141.34396589 -736.6171875 137.71875 C-735.39035954 132.22331961 -733.82981216 126.91089351 -732.10546875 121.55273438 C-730.11803293 115.31729978 -728.35948148 109.02653972 -726.6171875 102.71875 C-724.29612318 94.3262801 -721.86967872 85.97742195 -719.3046875 77.65625 C-716.23487206 67.6791396 -713.28241615 57.69009091 -711.0390625 47.48828125 C-710.8743042 46.76568115 -710.7095459 46.04308105 -710.53979492 45.29858398 C-710.22706636 43.91751045 -709.92918033 42.53295068 -709.6496582 41.14477539 C-708.56119124 36.38204488 -706.6637754 33.93869462 -702.9921875 30.78125 C-700.19612996 31.37899375 -698.45714661 32.12290249 -696.78417969 34.49169922 C-695.5771973 36.70621813 -694.45661585 38.94409875 -693.3671875 41.21875 C-692.60920611 42.76160063 -691.84635048 44.30206826 -691.078125 45.83984375 C-690.7486084 46.52361084 -690.4190918 47.20737793 -690.07958984 47.91186523 C-688.93270102 49.88351493 -687.6111848 51.19023671 -685.9921875 52.78125 C-685.54230469 53.71066406 -685.09242188 54.64007812 -684.62890625 55.59765625 C-682.80562615 59.14413187 -680.52064421 61.84988044 -677.8046875 64.71875 C-677.32 65.23945068 -676.8353125 65.76015137 -676.3359375 66.29663086 C-672.95730814 69.88085294 -669.43633431 73.22500064 -665.6484375 76.37890625 C-661.05501641 80.26814722 -661.05501641 80.26814722 -660.6171875 83.84375 C-661.08573783 88.76352852 -662.420225 93.11583837 -663.9921875 97.78125 C-664.46398437 99.20824219 -664.46398437 99.20824219 -664.9453125 100.6640625 C-665.66200422 102.79809234 -666.39457947 104.92683529 -667.140625 107.05078125 C-669.72012286 114.50175119 -671.87463558 121.91321907 -673.56005859 129.6184082 C-674.57671385 134.22833611 -675.83386616 138.72083942 -677.21582031 143.23461914 C-678.46696382 147.33860589 -679.63144434 151.46695155 -680.8046875 155.59375 C-681.06403076 156.50334473 -681.32337402 157.41293945 -681.59057617 158.35009766 C-682.63051028 161.99756677 -683.66899687 165.64544687 -684.70703125 169.29345703 C-686.46163198 175.45810296 -688.22372037 181.62056741 -689.9921875 187.78125 C-690.16917175 188.39810669 -690.34615601 189.01496338 -690.52850342 189.6505127 C-691.72711337 193.82680145 -692.92922845 198.00206254 -694.13485718 202.17633057 C-694.53680572 203.56942632 -694.93788095 204.96277437 -695.33804321 206.35638428 C-695.90258887 208.32164253 -696.47044067 210.28591784 -697.0390625 212.25 C-697.36745117 213.38888672 -697.69583984 214.52777344 -698.03417969 215.70117188 C-698.9921875 218.78125 -698.9921875 218.78125 -700.11425781 221.43945312 C-701.22621274 223.9886651 -701.22621274 223.9886651 -700.9921875 227.78125 C-601.9921875 228.11125 -502.9921875 228.44125 -400.9921875 228.78125 C-400.9921875 229.44125 -400.9921875 230.10125 -400.9921875 230.78125 C-384.71143635 230.67414645 -368.43073558 230.56140977 -352.15007114 230.44191074 C-344.59119293 230.38656135 -337.03231 230.3330766 -329.47338867 230.28393555 C-322.88736124 230.24111466 -316.30136881 230.19484207 -309.71539539 230.14437145 C-306.22607736 230.11775354 -302.73676634 230.09290014 -299.24740791 230.07217598 C-295.35833227 230.04901327 -291.4693392 230.01814642 -287.58032227 229.98657227 C-285.83245171 229.97793907 -285.83245171 229.97793907 -284.04927063 229.96913147 C-282.46955475 229.95444824 -282.46955475 229.95444824 -280.85792542 229.93946838 C-279.93705422 229.93301583 -279.01618303 229.92656328 -278.06740665 229.9199152 C-276.00212196 230.01064782 -276.00212196 230.01064782 -274.9921875 228.78125 C-273.47205888 228.68029424 -271.94724841 228.64910787 -270.42377567 228.64537811 C-269.43025028 228.64052037 -268.43672489 228.63566262 -267.41309267 228.63065767 C-265.7561279 228.63021369 -265.7561279 228.63021369 -264.06568909 228.62976074 C-262.32080551 228.62341213 -262.32080551 228.62341213 -260.54067177 228.61693525 C-257.29733982 228.60612317 -254.05403365 228.59980104 -250.8106879 228.59530044 C-247.31846309 228.58936791 -243.82625718 228.57769624 -240.33404541 228.56666565 C-234.2782853 228.54828757 -228.22252479 228.53345359 -222.16674995 228.52088928 C-213.40883617 228.50262696 -204.65094934 228.47796166 -195.89305686 228.45151538 C-181.68253814 228.40868632 -167.47201199 228.36958005 -153.26147461 228.33349609 C-152.41023952 228.33133329 -151.55900443 228.32917049 -150.68197434 228.32694215 C-144.63954564 228.31161378 -138.59711661 228.29641742 -132.5546875 228.28125 C-125.65421526 228.26392743 -118.75374318 228.24654275 -111.85327148 228.22900391 C-111.00337127 228.22684504 -110.15347106 228.22468617 -109.2778163 228.22246188 C-95.12322897 228.18638656 -80.96865514 228.14643504 -66.81408638 228.10370111 C-58.07488513 228.07750648 -49.33568805 228.05485686 -40.5964663 228.03671753 C-34.61139555 228.02407493 -28.62634083 228.00795804 -22.64128656 227.98906839 C-19.18390136 227.97828406 -15.72653173 227.96917484 -12.26913261 227.96437263 C-8.52794874 227.95836291 -4.78683239 227.94633294 -1.04566956 227.93273926 C0.05674291 227.93244327 1.15915537 227.93214728 2.29497427 227.93184233 C3.78917397 227.92455571 3.78917397 227.92455571 5.31355953 227.91712189 C6.17802037 227.91500592 7.04248121 227.91288995 7.93313783 227.91070986 C10.06989127 227.9129779 10.06989127 227.9129779 12.0078125 226.78125 C10.22555225 219.53339167 7.94956777 212.47496091 5.5703125 205.40625 C2.21155633 195.42624599 -0.97545432 185.42534028 -3.8203125 175.28515625 C-5.893543 168.01623396 -8.19894325 160.83766906 -10.5546875 153.65625 C-15.62147182 138.10748913 -20.42295108 122.48226893 -25.15228271 106.82798767 C-26.41171789 102.66721362 -27.70058005 98.51740438 -29.01953125 94.375 C-29.30666992 93.46065186 -29.59380859 92.54630371 -29.88964844 91.60424805 C-30.38928684 90.01655284 -30.89791797 88.43163529 -31.41894531 86.85083008 C-33.23645117 81.00835743 -34.0461654 75.13067016 -32.1796875 69.19921875 C-31.591875 68.09513672 -31.591875 68.09513672 -30.9921875 66.96875 C-28.36642918 61.66486781 -26.11237207 56.27823143 -23.9296875 50.78125 C-23.58059326 49.9056543 -23.23149902 49.03005859 -22.87182617 48.12792969 C-21.10907954 43.68234213 -19.4006051 39.22754159 -17.8046875 34.71875 C-16.55982538 31.2025605 -15.13638533 27.84694413 -13.5546875 24.46875 C-11.02540904 19.05109799 -9.04282298 13.49564333 -7.10546875 7.84765625 C-4.09314592 -0.44944347 -4.09314592 -0.44944347 0 0 Z " fill="#000000" transform="translate(887.9921875,560.21875)"/>
<path d="M0 0 C2.57596362 -0.37259549 2.57596362 -0.37259549 5.91520119 -0.36914349 C7.18365588 -0.37511663 8.45211057 -0.38108978 9.75900328 -0.38724393 C11.17980143 -0.37868366 12.60059793 -0.36984685 14.02139282 -0.36076355 C15.52042313 -0.36207063 17.01945278 -0.36469526 18.51847875 -0.36853105 C22.65281829 -0.37526711 26.78692648 -0.36320076 30.92123652 -0.34819686 C35.3738675 -0.33528549 39.8264846 -0.33962248 44.27912903 -0.34190369 C51.99864437 -0.34347953 59.71808385 -0.33403787 67.43758011 -0.31719017 C78.59877211 -0.29284682 89.7599273 -0.28499969 100.92114298 -0.2812262 C119.02785311 -0.27465437 137.13452278 -0.25467341 155.24121094 -0.22631836 C172.83398231 -0.19879668 190.42674271 -0.17755385 208.01953125 -0.16479492 C209.64516217 -0.16361267 209.64516217 -0.16361267 211.30363412 -0.16240653 C216.74031065 -0.15849152 222.17698725 -0.15470037 227.61366391 -0.15097082 C272.74247064 -0.11985215 317.87123324 -0.0669965 363 0 C363.64736352 1.74772008 364.29171926 3.49655444 364.93481445 5.24584961 C365.29396439 6.21961044 365.65311432 7.19337128 366.02314758 8.19664001 C367.03672137 11.10538257 367.79366099 13.99370172 368.48974609 16.98876953 C369.51900089 21.04570783 370.95632275 24.9806059 372.3125 28.9375 C374.80661972 36.305694 377.14174573 43.69405309 379.29394531 51.16870117 C380.74949227 56.20699368 382.35869659 61.17504175 384.04296875 66.140625 C386.28566588 72.84125479 388.2948176 79.61715925 390.3046875 86.390625 C394.04935118 98.99300764 398.01667192 111.51589614 402.04492188 124.03027344 C405.53636053 134.88657707 408.97551874 145.74032798 412.06640625 156.71875 C414.97958691 167.10080875 414.97958691 167.10080875 418.75 177.1875 C420.44708303 181.61304248 420.96401856 186.34690253 420 191 C418.6689834 192.66851741 417.3352939 194.33490368 416 196 C408.08323431 208.41949841 409.10531923 222.1497396 409.125 236.375 C409.10684475 238.76825098 409.08603328 241.16148336 409.0625 243.5546875 C409.0110322 249.36993148 408.99238828 255.18454874 409 261 C401.10224925 263.71968368 394.89261544 263.68684781 387 261 C385.71209119 257.10608821 385.936318 253.23239003 386 249.1875 C386.03606151 240.82710088 386.01450398 232.46600548 385.84741211 224.10708618 C385.81331553 222.11026083 385.80381708 220.11306343 385.79492188 218.1159668 C385.53985822 206.99873379 383.03467 197.03467 375 189 C371.60193196 185.87745099 368.16809714 184.01216017 363.96484375 182.22265625 C359.24503233 179.28567618 357.39432157 174.99801395 355.921875 169.828125 C355.5697998 168.61906494 355.21772461 167.41000488 354.85498047 166.16430664 C354.58497223 165.20767624 354.58497223 165.20767624 354.30950928 164.23171997 C353.35169024 160.8392309 352.35596364 157.45778639 351.3671875 154.07421875 C351.16839996 153.38964096 350.96961243 152.70506317 350.76480103 151.9997406 C348.91580882 145.6500301 346.91697415 139.35270196 344.875 133.0625 C342.06157443 124.36326417 339.35387156 115.63904174 336.71875 106.88427734 C334.36923431 99.11944694 331.880394 91.40324495 329.375 83.6875 C326.76850245 75.63863555 324.2123269 67.5871308 321.9375 59.4375 C321.73366699 58.71199951 321.52983398 57.98649902 321.31982422 57.23901367 C320.54545479 54.39419927 320 51.96393145 320 49 C285.27242714 49.05883952 250.54492702 49.13335443 215.8174362 49.22898628 C211.72049488 49.24025487 207.62355322 49.25139326 203.52661133 49.26245117 C202.71096043 49.26465486 201.89530953 49.26685854 201.05494193 49.269129 C187.83616523 49.30453206 174.61738858 49.32937918 161.398582 49.35034702 C147.8417707 49.37208515 134.2850211 49.40511655 120.72826225 49.44870156 C112.35839389 49.47525265 103.98860245 49.49292251 95.61869404 49.49934604 C89.88446348 49.50458939 84.15032982 49.5207707 78.41615113 49.54566566 C75.10441061 49.55971707 71.7928791 49.56722061 68.4811039 49.56500816 C64.89549667 49.56336843 61.31043239 49.57994361 57.72489929 49.60127258 C56.67140893 49.59642501 55.61791857 49.59157743 54.53250426 49.58658296 C53.09709405 49.60076777 53.09709405 49.60076777 51.63268566 49.61523914 C50.80451562 49.61713775 49.97634558 49.61903635 49.12307948 49.62099248 C46.49889744 50.08945574 45.62959586 50.93270644 44 53 C43.25673111 54.83946872 43.25673111 54.83946872 42.859375 56.89453125 C42.67947021 57.6740918 42.49956543 58.45365234 42.31420898 59.25683594 C42.03492554 60.52188965 42.03492554 60.52188965 41.75 61.8125 C39.97024966 69.41556005 37.87218884 76.83107742 35.4375 84.25 C32.9094299 91.98104949 30.7192736 99.69630067 28.828125 107.60546875 C27.93611728 111.26185889 26.88029074 114.83666921 25.765625 118.4296875 C24.85171194 121.49782419 24.05365979 124.58864235 23.25 127.6875 C20.97532505 136.30686216 18.34989371 144.81106849 15.734375 153.33203125 C14.23027318 158.23352718 12.75659183 163.1430099 11.3125 168.0625 C11.11293701 168.74159424 10.91337402 169.42068848 10.70776367 170.12036133 C9.75758474 173.36710259 8.822816 176.61750673 7.91015625 179.875 C5.06395456 190.01392224 5.06395456 190.01392224 3.4375 194 C1.55371689 198.70436647 0.77243303 203.66878057 -0.15625 208.6328125 C-1.02120277 212.08461478 -2.2967306 214.88680205 -4 218 C-6.37109375 217.8125 -6.37109375 217.8125 -9 217 C-10.22265625 214.8125 -10.22265625 214.8125 -11.0625 212 C-11.5575 210.49953125 -11.5575 210.49953125 -12.0625 208.96875 C-12.371875 207.9890625 -12.68125 207.009375 -13 206 C-15.7188917 197.50346342 -20.99919538 191.36510261 -28 186 C-30.53284386 185.06540025 -32.68505537 184.71148427 -35.36328125 184.45703125 C-40.65785173 183.5393057 -45.32545702 180.55413173 -50 178 C-50.39110405 170.56902309 -49.03561557 164.62630723 -46.8125 157.5625 C-46.16685719 155.43913975 -45.52233627 153.31543807 -44.87890625 151.19140625 C-44.55937988 150.14742676 -44.23985352 149.10344727 -43.91064453 148.02783203 C-42.40094268 143.00817455 -41.03558359 137.94993957 -39.68676758 132.88500977 C-38.7572097 129.46388772 -37.71335176 126.15684808 -36.4375 122.84765625 C-35.24006633 119.73599391 -34.40266117 116.71479147 -33.75 113.4375 C-32.39392386 107.31759162 -30.65834126 101.36431735 -28.8125 95.375 C-28.51118164 94.39692383 -28.20986328 93.41884766 -27.89941406 92.41113281 C-27.26214835 90.34480701 -26.62460835 88.27856578 -25.98681641 86.21240234 C-21.58246813 71.87484307 -17.34809682 57.49717412 -13.5 43 C-11.01663423 33.65094275 -8.41298806 24.3440257 -5.6875 15.0625 C-5.34976563 13.90041016 -5.01203125 12.73832031 -4.6640625 11.54101562 C-4.34566406 10.46658203 -4.02726562 9.39214844 -3.69921875 8.28515625 C-3.27902466 6.86021851 -3.27902466 6.86021851 -2.8503418 5.40649414 C-2 3 -2 3 0 0 Z " fill="#000000" transform="translate(353,0)"/>
<path d="M0 0 C1.38218719 -0.01925285 1.38218719 -0.01925285 2.79229736 -0.03889465 C4.29068146 -0.04997505 4.29068146 -0.04997505 5.81933594 -0.0612793 C6.84549011 -0.06935104 7.87164429 -0.07742279 8.92889404 -0.08573914 C11.10443427 -0.09958694 13.2799963 -0.11030597 15.45556641 -0.11816406 C18.77646335 -0.13535698 22.09635979 -0.17923526 25.41699219 -0.22338867 C27.53026611 -0.23351724 29.64354851 -0.24203283 31.75683594 -0.2487793 C32.74766174 -0.26628738 33.73848755 -0.28379547 34.75933838 -0.30183411 C40.48006818 -0.28391635 44.17435641 0.09132076 48.55371094 4.17700195 C50.6810312 8.27380271 50.79185891 11.76401823 50.76489258 16.33813477 C50.76357834 17.03951569 50.7622641 17.74089661 50.76091003 18.46353149 C50.75444698 20.7692034 50.73403422 23.07453787 50.71386719 25.38012695 C50.70759436 26.98483928 50.70235507 28.58955595 50.69810486 30.1942749 C50.68482701 34.40908973 50.6603973 38.62375855 50.63275146 42.83850098 C50.58955276 49.59885942 50.55997508 56.35925947 50.53671074 63.11971283 C50.5264559 65.48466782 50.50941441 67.84950698 50.49171448 70.2144165 C50.48489071 71.65409237 50.47828189 73.09376927 50.47192383 74.53344727 C50.4595443 76.42610321 50.4595443 76.42610321 50.44691467 78.35699463 C50.23005152 81.07995608 50.23005152 81.07995608 51.55371094 82.17700195 C53.69972847 82.28182958 55.84923688 82.31557029 57.99780273 82.32226562 C58.67106094 82.32562424 59.34431915 82.32898285 60.03797913 82.33244324 C62.27631449 82.34198472 64.51457522 82.34389837 66.75292969 82.3449707 C68.3065443 82.34818264 69.86015861 82.35154666 71.41377258 82.35505676 C74.67811788 82.36105712 77.94243668 82.36289589 81.20678711 82.36230469 C85.38197358 82.36220337 89.55698883 82.37581986 93.73213482 82.3930769 C96.94497958 82.40422203 100.15778341 82.40622307 103.37064552 82.40569496 C104.9091634 82.40687266 106.44768242 82.41128265 107.98618126 82.41902733 C110.14512272 82.42887176 112.3036986 82.42593113 114.46264648 82.41992188 C115.68984909 82.42134689 116.9170517 82.42277191 118.18144226 82.42424011 C121.61531394 82.17248552 124.3520074 81.41021661 127.55371094 80.17700195 C127.54926971 79.28608353 127.54482849 78.3951651 127.54025269 77.47724915 C127.50015717 69.07589994 127.46971694 60.67458292 127.45008659 52.27315998 C127.43965514 47.95403774 127.42550757 43.63499466 127.40283203 39.31591797 C127.38108092 35.1467683 127.36913751 30.9776947 127.36395645 26.80849266 C127.36026477 25.21890249 127.35305583 23.62931642 127.34225082 22.03975868 C127.32770568 19.81108265 127.32573425 17.58271987 127.32666016 15.35400391 C127.32221893 14.0860347 127.31777771 12.81806549 127.3132019 11.51167297 C127.54566006 8.28862784 128.16356896 6.06984252 129.55371094 3.17700195 C130.21371094 3.17700195 130.87371094 3.17700195 131.55371094 3.17700195 C131.88371094 2.18700195 132.21371094 1.19700195 132.55371094 0.17700195 C139.58264401 0.02479804 146.6111519 -0.08023586 153.64135742 -0.15258789 C156.03246948 -0.18275044 158.423471 -0.22368706 160.81420898 -0.27563477 C164.25239328 -0.34846858 167.68911442 -0.38246078 171.12792969 -0.40893555 C172.19581223 -0.43990326 173.26369476 -0.47087097 174.36393738 -0.5027771 C181.62090332 -0.50606369 181.62090332 -0.50606369 184.33633423 1.48236084 C188.4908847 6.35698153 188.70072172 10.2317885 188.69415283 16.35627747 C188.69712395 17.21200448 188.70009508 18.0677315 188.70315623 18.94938964 C188.71186845 21.83361977 188.71335361 24.71780851 188.71484375 27.60205078 C188.71947014 29.66317331 188.72449456 31.72429498 188.72988892 33.78541565 C188.74303222 39.39702389 188.74946164 45.00862017 188.75389957 50.6202414 C188.75682721 54.12359101 188.76093143 57.62693731 188.76540375 61.13028526 C188.7790838 72.08398512 188.78874795 83.03767747 188.79260564 93.99138528 C188.7970877 106.64964581 188.81464037 119.30779842 188.84360623 131.96602613 C188.86520037 141.74101287 188.87530871 151.51596921 188.87664676 161.29097956 C188.87769642 167.13347464 188.88363843 172.97586836 188.90146637 178.81833839 C188.91790782 184.31352872 188.92012165 189.80854106 188.91132736 195.30374718 C188.91055488 197.32218781 188.9149274 199.34063786 188.92478561 201.35905457 C188.93744344 204.11184194 188.93166193 206.86399304 188.92120361 209.61677551 C188.93328822 210.81853156 188.93328822 210.81853156 188.94561696 212.0445655 C188.9049698 216.61044703 188.3649616 219.53711149 185.55371094 223.17700195 C181.00077527 227.18057785 175.7108056 226.66144794 169.95996094 226.6809082 C168.93567993 226.6908934 167.91139893 226.7008786 166.8560791 226.71116638 C164.69429557 226.72632802 162.53244211 226.73339278 160.37060547 226.73291016 C157.06458214 226.73948035 153.76154806 226.79400846 150.45605469 226.85083008 C148.35320036 226.85963102 146.25033179 226.86558599 144.14746094 226.8684082 C143.16088501 226.88996475 142.17430908 226.9115213 141.15783691 226.93373108 C136.49625836 226.88718944 134.24203553 226.69387869 130.43579102 223.83569336 C127.45908781 219.33321297 127.8270158 214.16078762 127.84667969 208.9465332 C127.83155838 207.85009995 127.81643707 206.75366669 127.80085754 205.62400818 C127.75770266 202.07896848 127.74910342 198.53477931 127.74121094 194.98950195 C127.71793521 192.57183744 127.69254438 190.15419236 127.66503906 187.73657227 C127.59457395 180.88336169 127.5655572 174.03054119 127.55371094 167.17700195 C127.55108246 165.84774689 127.55108246 165.84774689 127.54840088 164.49163818 C127.52909687 152.65650042 127.52909687 152.65650042 127.58959961 147.17626953 C127.59838135 146.23291748 127.60716309 145.28956543 127.61621094 144.31762695 C127.63361328 143.13475098 127.63361328 143.13475098 127.65136719 141.92797852 C127.7472609 140.14834068 127.7472609 140.14834068 126.55371094 139.17700195 C124.18070225 139.08205462 121.83692391 139.05140876 119.46362305 139.06347656 C118.72220566 139.06333054 117.98078827 139.06318451 117.21690369 139.06303406 C114.75492473 139.0637333 112.2930205 139.07152621 109.83105469 139.0793457 C108.12854555 139.08120984 106.42603587 139.08263376 104.723526 139.08363342 C100.23378021 139.08745893 95.74406656 139.09728949 91.2543335 139.1083374 C86.67639603 139.11855082 82.09845338 139.12313089 77.52050781 139.12817383 C68.53156137 139.13891173 59.54263882 139.15598854 50.55371094 139.17700195 C50.56037277 140.14086823 50.56703461 141.1047345 50.57389832 142.09780884 C50.63476781 151.19048059 50.6797116 160.28311089 50.70914745 169.37594032 C50.72478959 174.05043671 50.74600132 178.72476834 50.7800293 183.39916992 C50.81267457 187.91197703 50.83057488 192.42462586 50.83834267 196.93754196 C50.8438769 198.65749985 50.85468397 200.37744929 50.87090111 202.09733963 C50.89274433 204.51031322 50.89567502 206.92263648 50.89428711 209.33569336 C50.90507294 210.04347931 50.91585876 210.75126526 50.92697144 211.48049927 C50.89823973 216.11040877 49.96435293 219.23448353 47.55371094 223.17700195 C43.09328766 227.24654677 37.66553259 226.6275731 31.95996094 226.6105957 C30.93567993 226.61583755 29.91139893 226.62107941 28.8560791 226.6264801 C26.69426377 226.63289276 24.5324135 226.63157313 22.37060547 226.62304688 C19.06512335 226.61453135 15.76136644 226.64331902 12.45605469 226.67504883 C10.35319062 226.67666084 8.2503235 226.67608331 6.14746094 226.6730957 C5.16088501 226.68432968 4.17430908 226.69556366 3.15783691 226.70713806 C-1.14476072 226.66347745 -3.76050009 226.57104973 -7.54589844 224.39599609 C-11.21146296 220.11589384 -10.59043183 215.15902173 -10.58000183 209.75721741 C-10.58226739 208.89978154 -10.58453294 208.04234568 -10.58686715 207.1589269 C-10.59320593 204.28090509 -10.59237787 201.40293038 -10.59155273 198.52490234 C-10.59454427 196.4634851 -10.59794679 194.40206841 -10.60173035 192.34065247 C-10.61057439 186.73742353 -10.61290861 181.13420986 -10.61354613 175.53097463 C-10.61449495 170.85634113 -10.61817287 166.18171119 -10.62171823 161.50707906 C-10.62986408 150.48079176 -10.63230232 139.45451262 -10.6315918 128.42822266 C-10.63099074 117.04588885 -10.64154787 105.6636024 -10.65733546 94.28128058 C-10.67040025 84.514746 -10.67577615 74.74822692 -10.67513639 64.98168367 C-10.67488112 59.14595052 -10.67774838 53.31025945 -10.68831444 47.47453499 C-10.69797773 41.98755344 -10.69808676 36.50065438 -10.69079781 31.01366997 C-10.68974981 28.99845637 -10.69212755 26.98323768 -10.69815826 24.96803284 C-10.70585067 22.21984755 -10.70125164 19.47194905 -10.69352722 16.72377014 C-10.69867078 15.92396369 -10.70381435 15.12415723 -10.70911378 14.30011421 C-10.68330269 10.15241203 -10.31443074 6.90708395 -8.44628906 3.17700195 C-7.78628906 3.17700195 -7.12628906 3.17700195 -6.44628906 3.17700195 C-6.44628906 2.51700195 -6.44628906 1.85700195 -6.44628906 1.17700195 C-4.08851036 -0.0018874 -2.6298934 0.03186712 0 0 Z " fill="#000000" transform="translate(662.4462890625,206.822998046875)"/>
<path d="M0 0 C0.82071487 -0.00990463 1.64142975 -0.01980927 2.48701477 -0.03001404 C3.3845195 -0.02551239 4.28202423 -0.02101074 5.20672607 -0.01637268 C6.15533005 -0.02323593 7.10393402 -0.03009918 8.08128357 -0.03717041 C11.23359994 -0.05553764 14.38542203 -0.05157924 17.53778076 -0.0459137 C19.74284017 -0.05047802 21.94789817 -0.05578433 24.1529541 -0.0617981 C28.79349505 -0.070754 33.43386427 -0.06828638 38.07440186 -0.05836487 C43.95642401 -0.04700243 49.83783439 -0.06687587 55.71977615 -0.09628201 C60.28785857 -0.11486394 64.85580121 -0.11430621 69.42391205 -0.10864449 C71.58754063 -0.10849323 73.75117993 -0.11437138 75.91477203 -0.12693596 C104.54146247 -0.26947487 134.06289753 3.53693585 155.71356201 24.0790863 C171.9108514 40.72708287 176.41523839 60.81527123 176.45965576 83.32518005 C176.46414734 84.03064972 176.46863892 84.73611938 176.4732666 85.46296692 C176.49659384 94.47789632 175.64665572 102.74741141 172.95965576 111.38768005 C172.60645264 112.56201599 172.25324951 113.73635193 171.88934326 114.9462738 C164.98233065 133.79986009 151.60257965 147.21872201 133.95965576 156.38768005 C107.77493696 168.20029659 79.05165991 167.02580882 50.95965576 167.38768005 C50.9663176 168.02803696 50.97297943 168.66839386 50.97984314 169.32815552 C51.04623369 175.9953255 51.09147197 182.66240149 51.12445068 189.32981873 C51.13953337 191.81781326 51.1600023 194.30578122 51.18597412 196.79368591 C51.22237913 200.37065693 51.2393876 203.94727627 51.25262451 207.5243988 C51.26810837 208.6360289 51.28359222 209.747659 51.29954529 210.89297485 C51.29977188 211.9336763 51.29999847 212.97437775 51.30023193 214.0466156 C51.30689377 214.95928696 51.3135556 215.87195831 51.32041931 216.81228638 C50.87352511 220.00254354 49.89470376 221.82302793 47.95965576 224.38768005 C45.04744408 226.38450549 42.64871777 226.64625691 39.16278076 226.6782074 C38.21499756 226.6909671 37.26721436 226.70372681 36.29071045 226.71687317 C35.2739624 226.71909882 34.25721436 226.72132446 33.20965576 226.72361755 C31.63426025 226.73360275 31.63426025 226.73360275 30.02703857 226.74378967 C27.80798086 226.75390815 25.58889277 226.75860694 23.36981201 226.75828552 C19.97216897 226.76266393 16.57581946 226.7990076 13.17840576 226.8368988 C11.02216021 226.842766 8.86590848 226.84673604 6.70965576 226.84861755 C5.69290771 226.86298859 4.67615967 226.87735962 3.62860107 226.89216614 C-3.38999531 226.84659955 -3.38999531 226.84659955 -6.64971924 224.54637146 C-9.44708881 220.20396595 -9.18359115 216.02990678 -9.17405701 211.05018616 C-9.17632256 210.18952116 -9.17858812 209.32885617 -9.18092233 208.44211042 C-9.18727173 205.5471631 -9.18643236 202.65226249 -9.18560791 199.75730896 C-9.18859882 197.68618713 -9.19200118 195.61506585 -9.19578552 193.54394531 C-9.20463673 187.90966643 -9.20696411 182.27540273 -9.20760131 176.64111757 C-9.2085496 171.94168098 -9.21222697 167.24224794 -9.2157734 162.54281271 C-9.22392223 151.45757135 -9.22635725 140.37233812 -9.22564697 129.28709412 C-9.22504607 117.84286522 -9.23559948 106.39868344 -9.25139064 94.95446646 C-9.26445563 85.13699707 -9.26983131 75.31954309 -9.26919156 65.50206506 C-9.26893627 59.63501797 -9.27180479 53.76801273 -9.28236961 47.90097427 C-9.29203308 42.38363742 -9.29214181 36.86638259 -9.28485298 31.34904289 C-9.28380496 29.32254225 -9.28618289 27.29603654 -9.29221344 25.2695446 C-9.29990555 22.50597962 -9.29530698 19.74269986 -9.2875824 16.97914124 C-9.29272596 16.17476171 -9.29786952 15.37038219 -9.30316895 14.54162753 C-9.27153439 9.42992083 -8.81078695 5.6944773 -5.66786575 1.59941006 C-3.63479899 0.08574159 -2.51966865 0.008597 0 0 Z M50.95965576 56.38768005 C50.86606387 58.10633414 50.84220965 59.82883749 50.84613037 61.55003357 C50.8462059 62.6510994 50.84628143 63.75216522 50.84635925 64.88659668 C50.85152054 66.08449326 50.85668182 67.28238983 50.86199951 68.5165863 C50.86341446 69.73595383 50.86482941 70.95532135 50.86628723 72.2116394 C50.87190609 76.12451075 50.8844618 80.03732586 50.89715576 83.95018005 C50.90216833 86.59536152 50.90673166 89.24054388 50.91082764 91.88572693 C50.92188165 98.38639731 50.93863813 104.88703467 50.95965576 111.38768005 C58.29209262 112.40507808 65.30909233 112.43193867 72.70965576 112.20018005 C73.90848389 112.18148865 75.10731201 112.16279724 76.34246826 112.14353943 C84.5220955 111.89069846 91.3601037 110.3949043 98.95965576 107.38768005 C100.05278076 106.97518005 101.14590576 106.56268005 102.27215576 106.13768005 C108.22472085 102.26159116 112.1888474 97.28540025 113.95965576 90.38768005 C114.78640186 81.64916607 114.65934423 73.95665201 109.95965576 66.38768005 C109.44403076 65.45955505 108.92840576 64.53143005 108.39715576 63.57518005 C101.09686144 57.02363387 90.139803 56.3253093 80.77215576 55.82518005 C80.00202148 55.78344666 79.23188721 55.74171326 78.43841553 55.69871521 C72.42488112 55.40194496 66.4176693 55.28160347 60.39715576 55.26268005 C59.56998047 55.25808777 58.74280518 55.25349548 57.89056396 55.24876404 C54.11951488 54.89511543 54.11951488 54.89511543 50.95965576 56.38768005 Z " fill="#000000" transform="translate(447.04034423828125,206.61231994628906)"/>
<path d="M0 0 C7.05080119 5.03628657 11.55899739 14.50945759 14.85546875 22.37890625 C19.03246071 31.94464552 24.05478469 41.16972825 28.99902344 50.35620117 C33.18045354 58.15303852 37.07600247 66.09204015 41 74.02050781 C44.88311219 81.85878212 48.84310949 89.63875846 52.99121094 97.34033203 C56.48944142 103.86038698 59.78217426 110.47990189 63.06347656 117.11108398 C64.0378394 119.07631999 65.01817247 121.03848349 66 123 C67.29229904 125.5817833 68.57891759 128.16623054 69.859375 130.75390625 C73.22370418 137.53816607 76.65147002 144.27412033 80.25 150.9375 C82.74715052 155.5653454 85.08358138 160.21080713 87.15234375 165.046875 C88.27912403 167.64314293 89.54298382 170.15679247 90.82421875 172.6796875 C91.71124038 174.43015544 92.58689995 176.18638757 93.45703125 177.9453125 C96.89742849 184.89056407 100.44101264 191.77236523 104.0625 198.625 C104.9155267 200.24600845 105.76839473 201.86710041 106.62109375 203.48828125 C108.05914138 206.22177441 109.5090458 208.94809899 110.97265625 211.66796875 C111.51792969 212.70566406 112.06320313 213.74335938 112.625 214.8125 C113.09164062 215.68519531 113.55828125 216.55789063 114.0390625 217.45703125 C115.18683826 220.49443785 115.30351297 222.77740642 115 226 C113.1329009 228.30275556 111.64352259 229.67823871 109 231 C107.4700993 231.10999875 105.93560064 231.15906829 104.40185547 231.17700195 C102.96928909 231.19625481 102.96928909 231.19625481 101.50778198 231.21589661 C99.95318771 231.22697701 99.95318771 231.22697701 98.3671875 231.23828125 C97.30138458 231.246353 96.23558167 231.25442474 95.13748169 231.26274109 C92.87617626 231.27659214 90.61484983 231.28730971 88.35351562 231.29516602 C84.90974662 231.31232685 81.46695047 231.35619871 78.0234375 231.40039062 C75.82552789 231.41052206 73.62761011 231.41903675 71.4296875 231.42578125 C69.89331131 231.45204338 69.89331131 231.45204338 68.32589722 231.47883606 C62.03096713 231.45992738 57.23898832 230.64442471 52 227 C49.79296875 224.66796875 49.79296875 224.66796875 48.1875 222.1875 C47.64480469 221.37667969 47.10210937 220.56585938 46.54296875 219.73046875 C44.76075012 216.57661857 43.40553079 213.33813563 42 210 C40.78721805 207.53141058 39.56107646 205.07514187 38.3125 202.625 C35.0230692 196.11369263 31.87684799 189.54557419 28.7902832 182.93603516 C26.70871681 178.48529389 24.55623461 174.0806762 22.33203125 169.69921875 C20.91308153 166.82386902 19.56041542 163.92247274 18.21020508 161.0144043 C15.24744413 154.63552127 12.18358213 148.36127947 8.8125 142.1875 C5.92559032 136.89402475 3.46316695 131.54220209 1.23046875 125.94140625 C-0.90798145 120.82949196 -3.46044772 115.92201886 -6 111 C-8.84299921 113.48867883 -10.27945992 116.18924604 -11.9375 119.5625 C-12.42089844 120.53316406 -12.90429688 121.50382812 -13.40234375 122.50390625 C-14.62600357 125.18159705 -15.73143307 127.83435218 -16.796875 130.57421875 C-19.31712788 136.95242946 -22.31359499 143.08587215 -25.3125 149.25 C-25.90110173 150.46644494 -26.48947886 151.68299858 -27.07763672 152.8996582 C-29.87942003 158.68673054 -32.71279387 164.45520132 -35.625 170.1875 C-39.25394634 177.36434921 -42.5372258 184.69602093 -45.86572266 192.01586914 C-49.71400607 200.44921386 -53.78353938 208.74607945 -58 217 C-58.53109375 218.07636719 -59.0621875 219.15273438 -59.609375 220.26171875 C-62.13934465 225.24348483 -64.55678818 228.24735715 -69.82287598 230.38677979 C-74.23029662 231.62819709 -78.7503185 231.42534047 -83.296875 231.3984375 C-84.90275482 231.40274277 -84.90275482 231.40274277 -86.54107666 231.40713501 C-88.79350313 231.40916904 -91.04594754 231.40368567 -93.29833984 231.39111328 C-96.75267665 231.3749875 -100.2058546 231.39101749 -103.66015625 231.41015625 C-105.85156509 231.40817494 -108.0429732 231.40433359 -110.234375 231.3984375 C-111.26874695 231.40451019 -112.3031189 231.41058289 -113.36883545 231.4168396 C-114.32703186 231.40738312 -115.28522827 231.39792664 -116.27246094 231.38818359 C-117.11516541 231.38579681 -117.95786987 231.38341003 -118.82611084 231.38095093 C-121.48968799 230.91418739 -122.37120057 230.12054134 -124 228 C-125.75915078 220.15895187 -122.53150457 213.67867867 -119 206.875 C-118.49597656 205.8658252 -117.99195312 204.85665039 -117.47265625 203.81689453 C-116.46022054 201.79427727 -115.43955335 199.77575655 -114.41015625 197.76171875 C-113.21088822 195.41301377 -112.03429088 193.05609038 -110.875 190.6875 C-106.79473543 182.37088373 -102.47025398 174.18785976 -98.14111328 165.9987793 C-95.05936952 160.13023887 -92.16302531 154.2004662 -89.375 148.1875 C-86.68499603 142.38994453 -83.83263911 136.77784793 -80.625 131.25 C-75.26919655 122.00808129 -70.83209985 112.34122133 -66.27832031 102.68701172 C-63.59200361 97.04041095 -60.76687366 91.4636516 -57.94726562 85.8828125 C-56.97300247 83.94633893 -56.00866313 82.00519729 -55.046875 80.0625 C-51.26300365 72.42847186 -47.36450573 64.86850829 -43.35351562 57.35131836 C-40.50910005 52.0046221 -37.78240795 46.60760619 -35.10083008 41.17773438 C-33.24676081 37.44106461 -31.34283717 33.73702868 -29.3828125 30.0546875 C-28.93542725 29.21405762 -28.48804199 28.37342773 -28.02709961 27.50732422 C-27.15990723 25.88420307 -26.28858818 24.26327715 -25.41235352 22.64501953 C-23.48385047 19.03640184 -21.74576651 15.49652058 -20.35546875 11.64453125 C-18.46046458 6.5493183 -15.88828582 3.6260239 -11.75 0.0625 C-7.64529462 -1.5234089 -4.1976453 -1.21470322 0 0 Z " fill="#000000" transform="translate(124,202)"/>
<path d="M0 0 C0.70125 0.53625 1.4025 1.0725 2.125 1.625 C2.125 2.285 2.125 2.945 2.125 3.625 C2.785 3.625 3.445 3.625 4.125 3.625 C4.85203125 4.98818359 4.85203125 4.98818359 5.59375 6.37890625 C5.9134375 6.97823975 6.233125 7.57757324 6.5625 8.19506836 C7.28151933 9.54339482 8.00026147 10.89186913 8.71875 12.24047852 C10.52496867 15.62988233 12.33444527 19.01738225 14.15625 22.3984375 C19.52158248 32.37248705 24.59757892 42.47733097 29.609375 52.6328125 C35.02340037 63.55211086 40.75658581 74.3074397 46.48828125 85.0625 C58.92234328 108.4109645 58.92234328 108.4109645 64.015625 120.18359375 C66.52531629 125.70668198 69.32848277 131.09642297 72.06054688 136.51220703 C73.75682177 139.87907926 75.44048397 143.25223378 77.125 146.625 C77.7916015 147.95836591 78.45826829 149.29169919 79.125 150.625 C91.125 174.625 91.125 174.625 92.12573242 176.62670898 C92.78969707 177.95447606 93.45392061 179.2821137 94.1184082 180.60961914 C95.82860671 184.02707839 97.53368154 187.44695366 99.23046875 190.87109375 C103.96406676 200.41144503 103.96406676 200.41144503 109.1171875 209.73046875 C111.3734582 213.97190785 112.41754983 217.42205905 112.4375 222.25 C112.45425781 223.19101562 112.47101563 224.13203125 112.48828125 225.1015625 C112.05404354 228.11788032 111.50739504 228.79444186 109.125 230.625 C106.91314697 231.00595093 106.91314697 231.00595093 104.30566406 231.01318359 C103.3274469 231.02264008 102.34922974 231.03209656 101.34136963 231.0418396 C100.2851239 231.03576691 99.22887817 231.02969421 98.140625 231.0234375 C96.50719147 231.02774277 96.50719147 231.02774277 94.84075928 231.03213501 C92.53413372 231.03417802 90.22749093 231.02863167 87.92089844 231.01611328 C84.40259596 231.0001254 80.88545315 231.01592267 77.3671875 231.03515625 C75.12499747 231.03317265 72.88280817 231.02932656 70.640625 231.0234375 C69.5924762 231.02951019 68.54432739 231.03558289 67.4644165 231.0418396 C61.57164378 230.98559874 57.35245863 230.39847252 52.125 227.625 C52.125 226.965 52.125 226.305 52.125 225.625 C51.135 225.295 50.145 224.965 49.125 224.625 C46.49719876 220.90228158 44.91289821 216.79676249 43.125 212.625 C42.63 211.8 42.135 210.975 41.625 210.125 C40.15257599 207.67095998 39.0756517 205.17405535 37.96386719 202.54296875 C36.60040596 199.42557894 35.04454989 196.40523028 33.5 193.375 C29.97329368 186.39471417 26.59334332 179.35210221 23.27099609 172.27246094 C21.30017069 168.0784868 19.28013869 163.91694021 17.19677734 159.77783203 C15.01637222 155.39814811 12.92030236 150.97745182 10.8125 146.5625 C10.08836914 145.0465625 10.08836914 145.0465625 9.34960938 143.5 C-0.57633865 122.69394071 -0.57633865 122.69394071 -3.48828125 115.87109375 C-4.54348682 113.401021 -5.63690316 111.00595547 -6.875 108.625 C-9.50486493 112.69220852 -11.29834782 116.94962781 -13.0625 121.4375 C-17.93080845 133.51884257 -23.93308774 144.93935946 -30.14282227 156.37426758 C-32.478063 160.72936575 -34.4195028 165.12064566 -36.0859375 169.76953125 C-36.875 171.625 -36.875 171.625 -38.875 173.625 C-39.52674608 175.10494743 -40.12390513 176.60928954 -40.6875 178.125 C-42.76897893 183.47737438 -45.25627462 188.51883098 -47.875 193.625 C-49.19363613 196.22609667 -50.50425126 198.83116548 -51.8125 201.4375 C-52.15603516 202.11997803 -52.49957031 202.80245605 -52.85351562 203.50561523 C-55.54741678 208.88896166 -58.04483454 214.33765031 -60.453125 219.85546875 C-63.24205416 225.28775111 -65.62692854 227.93231374 -71.48699951 230.00996399 C-75.95311631 231.1602245 -80.42793116 231.07211425 -85.015625 231.05859375 C-86.06022888 231.0638356 -87.10483276 231.06907745 -88.18109131 231.07447815 C-90.37625238 231.08087101 -92.57144784 231.07959705 -94.76660156 231.07104492 C-98.1288688 231.06249016 -101.48946082 231.0914076 -104.8515625 231.12304688 C-106.98958283 231.12465795 -109.12760616 231.12408316 -111.265625 231.12109375 C-112.26982483 231.13232773 -113.27402466 231.14356171 -114.30865479 231.15513611 C-121.19160807 231.08606931 -121.19160807 231.08606931 -124.52636719 228.83618164 C-126.29880621 225.93013888 -126.21183805 223.66544225 -125.671875 220.35546875 C-124.13666294 215.09510979 -121.46484462 210.35161139 -118.88964844 205.54150391 C-117.17787622 202.30824791 -115.56357172 199.02693844 -113.9375 195.75 C-113.26080688 194.39694019 -112.58372132 193.04407658 -111.90625 191.69140625 C-110.56743057 189.01440859 -109.23448364 186.33460839 -107.90625 183.65234375 C-104.13005293 176.03990574 -100.24443915 168.49855332 -96.24169922 161.00268555 C-93.2628111 155.40647491 -90.40469015 149.75640007 -87.61328125 144.06445312 C-86.08054794 140.95641058 -84.48935743 137.91939075 -82.7421875 134.92578125 C-81.30755178 132.38965743 -80.21129713 130.17911389 -79.3125 127.4375 C-78.55776248 125.13578495 -77.85061229 123.59256818 -76.3828125 121.640625 C-74.85722054 119.60123264 -74.14191605 117.95521331 -73.3125 115.5625 C-71.231189 110.13651412 -68.58946485 105.0661374 -65.875 99.9375 C-65.44759521 99.12982178 -65.02019043 98.32214355 -64.57983398 97.48999023 C-62.69280222 93.95112408 -60.77917344 90.43990084 -58.75 86.98046875 C-56.86213695 83.6019805 -55.38763767 80.18460968 -53.875 76.625 C-52.57320527 74.05477207 -51.19055388 71.52997805 -49.8125 69 C-46.25287912 62.38273713 -42.9451487 55.67522949 -39.75 48.875 C-36.52837952 42.02335858 -33.18375499 35.31277439 -29.53125 28.6796875 C-27.67618593 25.25831933 -25.9213503 21.79637027 -24.1875 18.3125 C-23.60871094 17.15363281 -23.02992188 15.99476563 -22.43359375 14.80078125 C-21.50726836 12.91330621 -20.59715471 11.01750776 -19.72265625 9.10546875 C-17.74811622 4.83126362 -15.86424664 2.18220938 -11.875 -0.375 C-7.44393702 -1.85202099 -4.26422705 -2.03941294 0 0 Z " fill="#000000" transform="translate(993.875,202.375)"/>
<path d="M0 0 C0.98097656 -0.01224609 1.96195313 -0.02449219 2.97265625 -0.03710938 C17.37003881 -0.0658658 17.37003881 -0.0658658 22.87109375 3.89453125 C24.90695952 6.76036628 26.22158168 9.624614 27.5625 12.875 C27.95091064 13.81255127 27.95091064 13.81255127 28.34716797 14.76904297 C30.28892919 19.51380082 31.9790548 24.29512627 33.5 29.1875 C35.80406916 36.41298003 38.33991207 43.43519478 41.3515625 50.3984375 C42.54275053 53.29132271 43.51215453 56.21999634 44.5 59.1875 C45.12309831 60.65569117 45.76759181 62.11506785 46.4375 63.5625 C48.31847621 67.71191944 49.94325251 71.90644441 51.5 76.1875 C51.78488281 75.61515625 52.06976562 75.0428125 52.36328125 74.453125 C53.08141961 73.02178395 53.80702711 71.59414424 54.54296875 70.171875 C57.52649893 64.34737239 60.18414158 58.41649146 62.77661133 52.41162109 C64.98592392 47.31083883 67.33157763 42.28701678 69.73168945 37.27270508 C71.53816121 33.43213911 73.1736913 29.55036409 74.73046875 25.6015625 C75.11734863 24.62461426 75.50422852 23.64766602 75.90283203 22.64111328 C76.6571686 20.71985775 77.39970044 18.7939111 78.12841797 16.86279297 C80.50188979 10.81954341 83.39502648 4.23998676 89.5 1.1875 C93.21077072 0.68148581 95.04778969 0.92097381 98.296875 2.8359375 C103.3527175 7.26646036 105.43927989 14.12839551 108 20.1875 C108.54667368 21.45247369 109.09484145 22.71680278 109.64453125 23.98046875 C110.46218094 25.86147204 111.27825416 27.74302316 112.08750916 29.62765503 C114.3672782 34.93173484 116.77580185 40.16759289 119.22680664 45.39501953 C120.38080729 47.92607599 121.4359639 50.46803915 122.4375 53.0625 C124.41790421 58.16455829 126.75174565 63.08350566 129.12670898 68.01123047 C130.57607918 71.0507097 131.7553642 73.90788631 132.5 77.1875 C132.73726807 76.5903418 132.97453613 75.99318359 133.21899414 75.37792969 C135.01491253 70.87131472 136.82856596 66.37326268 138.68359375 61.890625 C143.52843377 50.2486223 143.52843377 50.2486223 147.9375 38.4375 C148.78873664 36.01975149 149.64238143 33.60298482 150.5 31.1875 C150.85707031 30.17977539 151.21414063 29.17205078 151.58203125 28.13378906 C152.84591774 24.60192848 154.13961962 21.08199687 155.4375 17.5625 C156.04839478 15.83435059 156.04839478 15.83435059 156.67163086 14.07128906 C157.28083374 12.43885254 157.28083374 12.43885254 157.90234375 10.7734375 C158.25804443 9.7942334 158.61374512 8.8150293 158.98022461 7.80615234 C161.0221573 4.28779571 162.85358341 2.99433727 166.5 1.1875 C169.5038564 0.64543531 172.4299901 0.62577935 175.4765625 0.65625 C176.32423187 0.6524231 177.17190125 0.64859619 178.04525757 0.64465332 C179.82868647 0.64194235 181.61215569 0.64924631 183.39550781 0.66601562 C186.12394579 0.6874917 188.84976686 0.66616039 191.578125 0.640625 C193.31510997 0.64326738 195.05209331 0.6483905 196.7890625 0.65625 C197.60267242 0.64815308 198.41628235 0.64005615 199.25454712 0.63171387 C202.88748648 0.69189514 205.05576296 0.85712784 208.01269531 3.05615234 C210.1330025 6.09460963 210.05478956 7.50881846 209.5 11.1875 C208.32178829 14.57127576 206.8622322 17.80476734 205.375 21.0625 C204.54269445 22.94013294 203.71329087 24.81905479 202.88671875 26.69921875 C202.27449463 28.09019775 202.27449463 28.09019775 201.64990234 29.50927734 C199.54100056 34.42109318 197.71427375 39.42755861 195.88671875 44.44921875 C194.5307845 48.10451192 193.09601115 51.71812636 191.63989258 55.33422852 C190.35468741 58.55123276 189.0977814 61.77853078 187.84375 65.0078125 C187.37839844 66.20277344 186.91304687 67.39773438 186.43359375 68.62890625 C185.47522348 71.09142167 184.51950775 73.55497179 183.56640625 76.01953125 C181.13472198 82.25030119 178.55571139 88.24142958 175.5 94.1875 C174.67477825 96.19486457 173.8808953 98.21551585 173.125 100.25 C171.27885357 105.14654837 169.38806718 110.01943716 167.4375 114.875 C167.18258789 115.51018555 166.92767578 116.14537109 166.66503906 116.79980469 C165.94380845 118.59588352 165.22192029 120.39169827 164.5 122.1875 C163.79124385 123.95816415 163.0828547 125.72897529 162.375 127.5 C162.06175781 128.28117188 161.74851562 129.06234375 161.42578125 129.8671875 C160.7928181 131.45360147 160.16546798 133.04226344 159.54296875 134.6328125 C157.83153809 138.98298286 156.02948413 143.25869048 154.0625 147.5 C152.1786798 151.56720813 150.54922951 155.66925468 149 159.875 C144.07962895 172.89768553 144.07962895 172.89768553 139.5 175.1875 C136.6875 175.5625 136.6875 175.5625 133.5 175.1875 C129.36481998 171.68086734 126.81933378 167.70512136 124.375 162.9375 C123.80640259 161.84526123 123.80640259 161.84526123 123.22631836 160.73095703 C117.80986176 150.12158362 113.19813163 139.12760162 108.5 128.1875 C106.75326741 124.12358291 105.00423471 120.06068488 103.25 116 C102.84096436 115.05294189 102.43192871 114.10588379 102.01049805 113.13012695 C98.76632981 105.67556827 95.27004917 98.39054096 91.5 91.1875 C91.35812256 91.74042725 91.21624512 92.29335449 91.07006836 92.86303711 C88.86262794 100.84452825 85.50318749 108.24487465 82.0625 115.75 C81.48313473 117.02512307 80.90435545 118.30051255 80.32617188 119.57617188 C79.21452113 122.02725176 78.09985035 124.47687546 76.98339844 126.92578125 C74.77011046 131.79239208 72.6059693 136.68000285 70.44848633 141.5715332 C57.52995059 170.81578582 57.52995059 170.81578582 51.5 175.1875 C48.5625 175.875 48.5625 175.875 45.5 175.1875 C40.19881715 170.73337699 37.84362219 166.32747267 35.375 159.9375 C34.89353516 158.74447266 34.89353516 158.74447266 34.40234375 157.52734375 C33.42037927 155.08623526 32.45924876 152.63761171 31.5 150.1875 C28.16519868 141.79630839 24.77116632 133.42898843 21.375 125.0625 C21.09131561 124.36318359 20.80763123 123.66386719 20.51535034 122.94335938 C16.35216817 112.68439637 12.11673123 102.45829901 7.82885742 92.25073242 C5.02204924 85.5335499 2.40402289 78.77128631 -0.05078125 71.91796875 C-1.18063973 68.88055151 -2.5054054 65.95988079 -3.8671875 63.01953125 C-6.63162241 57.00964462 -8.98564259 50.8774241 -11.3125 44.6875 C-14.68925638 35.75957044 -18.17974194 26.91544102 -22.16333008 18.23828125 C-24.1568908 13.72307111 -24.98416735 10.22409807 -24.5 5.1875 C-23.0625 2.8125 -23.0625 2.8125 -20.5 1.1875 C-13.66312675 0.16434057 -6.90430752 0.00453634 0 0 Z " fill="#000000" transform="translate(689.5,463.8125)"/>
<path d="M0 0 C2.50897142 3.14692183 2.3751971 5.08828498 2.3873558 9.08849716 C2.39485706 9.765701 2.40235831 10.44290484 2.41008687 11.14063001 C2.43037924 13.40874054 2.42225904 15.67585285 2.41427231 17.94402695 C2.42300655 19.57022212 2.43349181 21.19640869 2.4455986 22.82258224 C2.47349775 27.237562 2.47686243 31.65226189 2.47587872 36.06731701 C2.47900446 40.68117123 2.5046156 45.29489876 2.52785873 49.90868759 C2.56844823 58.64567182 2.58876637 67.38258135 2.60183263 76.11964536 C2.61769269 86.0664116 2.65610411 96.01305055 2.69642591 105.95974302 C2.77886521 126.42093372 2.83293213 146.88211849 2.86837387 167.34344101 C4.34509567 167.34011009 4.34509567 167.34011009 5.85165024 167.33671188 C15.14975952 167.31640075 24.44786428 167.30143052 33.74599075 167.29162884 C38.52572686 167.28642023 43.30544499 167.27935944 48.08517075 167.26800156 C52.70171408 167.25710064 57.31824017 167.25114894 61.93479538 167.24856377 C63.69215287 167.24672248 65.44950947 167.24312696 67.20685959 167.23771095 C69.67673372 167.23040482 72.14653747 167.22945408 74.61642075 167.22991562 C75.69536606 167.22452271 75.69536606 167.22452271 76.79610825 167.21902084 C89.53996125 167.24462786 89.53996125 167.24462786 93.82906723 170.79241562 C96.76330587 174.93284051 96.57014595 179.2469523 96.49728012 184.15984726 C96.49969208 185.09392914 96.50210403 186.02801102 96.50458908 186.99039841 C96.50361278 188.95797614 96.49027109 190.92558208 96.4652977 192.89300156 C96.43093926 195.90021818 96.44466239 198.90450206 96.464077 201.91180038 C96.45717937 203.82782848 96.44750774 205.74384902 96.43478012 207.65984726 C96.43973999 208.55579102 96.44469986 209.45173477 96.44981003 210.37482834 C96.37123694 214.54824611 96.22244484 216.77950663 93.95797348 220.38616562 C90.65696653 223.47813579 88.74293631 223.4710944 84.30860519 223.4838829 C83.12668594 223.48959305 81.94476669 223.49530319 80.72703171 223.50118637 C79.42362335 223.50230423 78.120215 223.50342209 76.77730942 223.50457382 C75.39598075 223.50920124 74.01465337 223.51422579 72.63332748 223.51961899 C68.87496609 223.53275327 65.11662256 223.53919006 61.3582418 223.54362965 C59.01070842 223.546559 56.66317995 223.55066357 54.31564903 223.55513382 C46.97242432 223.56881209 39.62921078 223.57847686 32.2859742 223.58233571 C23.80636806 223.58681602 15.32692315 223.60436117 6.84736603 223.63333631 C0.29528144 223.65494863 -6.25675778 223.66503977 -12.80887765 223.66637683 C-16.72314184 223.66742528 -20.63725455 223.6733413 -24.55148125 223.69119644 C-28.23442508 223.70766923 -31.91710342 223.70983663 -35.60007095 223.70105743 C-37.594633 223.69991927 -39.58918621 223.71364318 -41.58369827 223.72780991 C-42.774077 223.72224075 -43.96445572 223.7166716 -45.19090652 223.71093369 C-46.22348241 223.71240025 -47.25605829 223.71386681 -48.31992435 223.71537781 C-52.28398347 223.19100518 -54.94245759 221.86148306 -57.42741203 218.68929577 C-58.50616054 215.09580435 -58.41320107 211.5271537 -58.39905167 207.80976486 C-58.40358278 206.94007834 -58.40811389 206.07039182 -58.41278231 205.17435116 C-58.42546121 202.25483063 -58.4238037 199.33549582 -58.42215347 196.41595078 C-58.42813648 194.32497543 -58.4349415 192.23400229 -58.4425087 190.14303207 C-58.46019756 184.45921841 -58.46486525 178.77546493 -58.46614027 173.09162641 C-58.46803783 168.3498842 -58.47539359 163.60815606 -58.48248446 158.86641926 C-58.49877646 147.68191341 -58.50365261 136.49743978 -58.5022316 125.31292343 C-58.50102947 113.76693669 -58.52214372 102.22113666 -58.55371892 90.67519718 C-58.57984791 80.76852968 -58.59060034 70.8619233 -58.58932078 60.95522159 C-58.58881022 55.0356016 -58.59454566 49.11614755 -58.61567688 43.19656181 C-58.6350027 37.63070768 -58.63522246 32.06517878 -58.62064362 26.49931335 C-58.61854749 24.45507013 -58.62330399 22.41080685 -58.63536453 20.36659813 C-58.6507491 17.57871363 -58.64155399 14.7919601 -58.62610245 12.0041008 C-58.63638957 11.1926215 -58.6466767 10.3811422 -58.65727556 9.54507262 C-58.61090668 5.76677526 -58.2826706 3.57951258 -56.22572136 0.36464977 C-52.65542469 -3.08138019 -49.58552035 -2.86023827 -44.85037613 -2.97296524 C-44.12225723 -2.99374634 -43.39413834 -3.01452744 -42.64395523 -3.03593826 C-41.09726207 -3.07923122 -39.55050443 -3.1202696 -38.00369644 -3.15924454 C-35.66858264 -3.21812709 -33.33371981 -3.28335523 -30.99881363 -3.34991837 C-5.23151816 -4.06559026 -5.23151816 -4.06559026 0 0 Z " fill="#000000" transform="translate(315.1316261291504,209.65655899047852)"/>
<path d="M0 0 C1.06240402 -0.01051392 1.06240402 -0.01051392 2.14627075 -0.02124023 C4.48593592 -0.03882148 6.82438504 -0.02717798 9.1640625 -0.01367188 C10.8105492 -0.01637154 12.45703434 -0.02025789 14.10351562 -0.02526855 C17.56363016 -0.03116775 21.02333196 -0.02260505 24.48339844 -0.00390625 C28.85526088 0.01860115 33.22613509 0.00555941 37.59796143 -0.01765442 C80.48437619 -0.21164042 80.48437619 -0.21164042 96.75732422 7.67785645 C99.00665432 8.71546575 99.00665432 8.71546575 102.5390625 8.95507812 C106.69724876 9.67476421 108.02030909 11.44118545 110.7890625 14.51757812 C111.7790625 14.84757812 112.7690625 15.17757813 113.7890625 15.51757812 C115 17.21655273 115 17.21655273 116.1640625 19.41992188 C116.59203125 20.22880859 117.02 21.03769531 117.4609375 21.87109375 C117.89921875 22.72380859 118.3375 23.57652344 118.7890625 24.45507812 C119.22734375 25.27298828 119.665625 26.09089844 120.1171875 26.93359375 C123.09799114 32.64829712 125.11934935 38.30344196 126.7890625 44.51757812 C127.10230469 45.55269531 127.41554688 46.5878125 127.73828125 47.65429688 C127.98191406 48.49605469 128.22554687 49.3378125 128.4765625 50.20507812 C128.85361328 51.47931641 128.85361328 51.47931641 129.23828125 52.77929688 C130.56686137 59.38450727 129.48347499 64.5971878 127.2265625 70.76757812 C126.9569873 71.51120605 126.68741211 72.25483398 126.40966797 73.02099609 C121.32790507 86.4819825 113.43587925 94.51039161 101.7890625 102.51757812 C103.79272582 108.76429318 106.70340473 113.75670384 110.36328125 119.19726562 C111.7890625 121.51757812 111.7890625 121.51757812 111.7890625 123.51757812 C112.4490625 123.51757812 113.1090625 123.51757812 113.7890625 123.51757812 C114.29695313 124.4121875 114.80484375 125.30679688 115.328125 126.22851562 C116.75664151 128.74210496 118.19432225 131.25021239 119.63671875 133.75585938 C120.92245067 135.99081206 122.17791266 138.23250023 123.41015625 140.49804688 C126.55302476 146.12795496 129.43021042 148.98073575 134.7890625 152.51757812 C134.7890625 153.50757813 134.7890625 154.49757813 134.7890625 155.51757812 C135.4490625 155.51757812 136.1090625 155.51757812 136.7890625 155.51757812 C139.01171121 158.85155118 139.08581713 160.11272703 139.1015625 164.01757812 C139.11832031 164.97664062 139.13507813 165.93570313 139.15234375 166.92382812 C138.7890625 169.51757812 138.7890625 169.51757812 137.53515625 171.25585938 C131.53332944 175.59274989 124.30231078 176.18645774 117.1796875 175.13085938 C115.15641657 174.79632384 113.13561642 174.44659158 111.1171875 174.08398438 C107.57909322 173.48184392 104.03687472 173.0307985 100.4765625 172.58007812 C92.93261523 171.46921116 88.21544301 170.58859355 83.2265625 164.45507812 C78.06848812 157.32818518 73.86063591 149.69267169 69.68359375 141.96679688 C59.2933799 122.25699998 59.2933799 122.25699998 46.71484375 103.95507812 C43.75884204 100.2136074 41.65296206 96.55908473 41.9765625 91.70507812 C42.7890625 89.51757812 42.7890625 89.51757812 44.7890625 87.51757812 C46.42854162 86.95922433 48.09421845 86.47640173 49.76953125 86.03710938 C50.76919922 85.75931641 51.76886719 85.48152344 52.79882812 85.1953125 C54.89422535 84.62477718 56.99319099 84.06716794 59.09570312 83.5234375 C65.90828205 81.59880758 70.53598965 79.30369837 74.7890625 73.51757812 C77.72494571 68.14696555 78.77241786 62.59252902 77.7890625 56.51757812 C76.0235059 51.69552031 73.09575397 48.2861655 68.7890625 45.51757812 C58.67048346 41.07527513 46.66443676 40.89982239 35.7890625 41.51757812 C34.24935638 43.05728424 34.66188302 44.47519848 34.65966797 46.61914062 C34.65493973 47.92685425 34.65493973 47.92685425 34.65011597 49.26098633 C34.6521402 50.21191162 34.65416443 51.16283691 34.65625 52.14257812 C34.65529327 53.11864014 34.65433655 54.09470215 34.65335083 55.1003418 C34.65266839 57.17513086 34.6545271 59.24992204 34.65869141 61.32470703 C34.66399304 64.47628707 34.65877251 67.62772158 34.65234375 70.77929688 C34.65300542 72.79622427 34.65428841 74.81315158 34.65625 76.83007812 C34.65422577 77.76480957 34.65220154 78.69954102 34.65011597 79.66259766 C34.66791085 84.72657674 34.93767641 89.61816315 35.67263794 94.6315918 C35.7890625 96.51757812 35.7890625 96.51757812 34.7890625 99.51757812 C34.68676017 101.55581006 34.64326654 103.59717657 34.63134766 105.63793945 C34.61595444 107.53054253 34.61595444 107.53054253 34.60025024 109.46138 C34.59509336 110.47243522 34.59509336 110.47243522 34.58983231 111.50391579 C34.57801774 113.61880899 34.55855776 115.73350033 34.53671265 117.84831238 C34.47518833 123.86080157 34.42110916 129.87326995 34.38769531 135.88598633 C34.36669594 139.56601156 34.33135049 143.24566796 34.28693771 146.9254818 C34.27281844 148.32439507 34.26406449 149.7233736 34.26088333 151.12235451 C34.25594954 153.08466117 34.23113755 155.04688696 34.20556641 157.0090332 C34.19747955 158.12361404 34.1893927 159.23819489 34.18106079 160.3865509 C33.73021093 163.98764619 32.65415712 166.41985512 30.7890625 169.51757812 C27.66413831 171.08004022 24.32710817 170.72255939 20.89453125 170.75585938 C20.1101619 170.76393112 19.32579254 170.77200287 18.51765442 170.78031921 C16.85578623 170.79415874 15.19388963 170.80488149 13.53198242 170.81274414 C10.99668115 170.82994166 8.46268936 170.87382468 5.92773438 170.91796875 C4.31250958 170.92809728 2.69727371 170.93661288 1.08203125 170.94335938 C-0.05103203 170.96962151 -0.05103203 170.96962151 -1.20698547 170.99641418 C-4.51112202 170.98287407 -6.94018314 170.65438451 -9.90071106 169.15849304 C-13.47467372 165.07294925 -12.9881834 161.05897839 -13.01513672 155.79296875 C-13.03920027 154.72628212 -13.06326382 153.65959549 -13.08805656 152.56058502 C-13.15559522 149.21271331 -13.18685535 145.86601956 -13.2109375 142.51757812 C-13.23622319 140.50935508 -13.2617873 138.50113551 -13.28765869 136.49291992 C-13.3509564 130.36558777 -13.35038587 124.23892098 -13.34375 118.11132812 C-13.34442728 115.84574371 -13.34540078 113.58015937 -13.34664917 111.3145752 C-13.34810869 106.60196226 -13.34603027 101.88936849 -13.34130859 97.17675781 C-13.33676481 92.41828155 -13.33672983 87.65984341 -13.34130859 82.90136719 C-13.35513285 68.40485828 -13.33006591 53.90934651 -13.22981262 39.41314697 C-13.2118322 36.6548307 -13.19897082 33.89653095 -13.18688965 31.13818359 C-13.16670139 27.25184263 -13.12061133 23.36681836 -13.04879379 19.48109436 C-13.01677303 17.49503347 -13.00785004 15.50864151 -12.99978638 13.52233887 C-12.97133636 12.36899048 -12.94288635 11.21564209 -12.91357422 10.02734375 C-12.89865936 9.04817993 -12.88374451 8.06901611 -12.86837769 7.06018066 C-12.2109375 4.51757812 -12.2109375 4.51757812 -10.1177063 2.20556641 C-6.49925948 0.10429993 -4.17451015 0.01041387 0 0 Z " fill="#000000" transform="translate(389.2109375,464.482421875)"/>
<path d="M0 0 C0.8167923 -0.00717041 1.63358459 -0.01434082 2.47512817 -0.02172852 C22.88841037 -0.11798981 40.31867812 5.88516413 57 17.6875 C57.96776367 18.35749023 57.96776367 18.35749023 58.95507812 19.04101562 C60.57012768 20.18436817 62.13394544 21.39939471 63.6875 22.625 C63.6875 23.285 63.6875 23.945 63.6875 24.625 C64.3475 24.625 65.0075 24.625 65.6875 24.625 C67.37849249 28.00698498 67.50611243 31.01141083 66.6875 34.625 C64.36010602 38.56801213 61.54285823 42.05447784 58.6875 45.625 C57.71912481 47.01388551 56.75889211 48.40854293 55.8125 49.8125 C55.11125 50.740625 54.41 51.66875 53.6875 52.625 C53.0275 52.625 52.3675 52.625 51.6875 52.625 C51.378125 53.264375 51.06875 53.90375 50.75 54.5625 C49.6875 56.625 49.6875 56.625 48.6875 57.625 C41.63860281 58.35338604 37.83518261 56.48843103 31.9375 52.8125 C21.19721216 46.56086966 12.47358583 44.42542936 0.0625 44.25 C-0.80866455 44.23565918 -1.6798291 44.22131836 -2.57739258 44.20654297 C-14.72728111 44.30057703 -22.61207792 48.22600987 -31.3125 56.625 C-40.36319568 66.4627127 -43.80648157 78.5151996 -43.63671875 91.69140625 C-42.77239092 102.17788967 -38.86920444 111.48564277 -32.3125 119.625 C-32.3125 120.285 -32.3125 120.945 -32.3125 121.625 C-31.7453125 121.893125 -31.178125 122.16125 -30.59375 122.4375 C-27.39531212 124.10244027 -24.50282049 126.15217775 -21.53125 128.1875 C-14.35403434 132.83752705 -7.33809931 132.80659901 1 132.8125 C1.89912109 132.82474609 2.79824219 132.83699219 3.72460938 132.84960938 C12.72241747 132.8691274 20.01226127 131.319089 28 127.1875 C29.75763672 126.29224609 29.75763672 126.29224609 31.55078125 125.37890625 C34.13234386 123.93541732 36.38383173 122.46263883 38.6875 120.625 C41.28637006 118.89241996 42.45446928 118.6150838 45.625 118.75 C51.62079389 120.46308397 54.65078746 124.33887077 57.6875 129.625 C57.6875 130.615 57.6875 131.605 57.6875 132.625 C58.29078125 132.87894531 58.8940625 133.13289062 59.515625 133.39453125 C63.21347686 135.48953725 64.9542966 138.82845922 66.6875 142.625 C67.19914791 146.39840332 67.06448215 148.65898325 65.6875 152.1875 C60.18897833 158.88882329 52.28188641 162.74207999 44.6875 166.625 C43.76839844 167.13160156 42.84929687 167.63820313 41.90234375 168.16015625 C19.72220878 179.58628638 -5.70579329 180.32554259 -29.3125 173.625 C-31.03146484 173.13966797 -31.03146484 173.13966797 -32.78515625 172.64453125 C-39.10021785 170.68853872 -44.73216482 168.16350739 -50.3125 164.625 C-51.08980469 164.13386719 -51.86710937 163.64273438 -52.66796875 163.13671875 C-62.12256288 156.83866638 -72.60290199 148.61679651 -78.3125 138.625 C-78.3125 137.965 -78.3125 137.305 -78.3125 136.625 C-79.2096875 136.25375 -79.2096875 136.25375 -80.125 135.875 C-83.51636296 133.93707831 -84.98142242 131.67034681 -86.15625 127.9609375 C-86.3728125 126.98382812 -86.589375 126.00671875 -86.8125 125 C-87.70677529 121.11696255 -88.69036219 117.3462919 -89.9375 113.5625 C-96.76411023 91.08115007 -92.17857073 65.77665616 -81.4765625 45.4609375 C-78.58882869 40.20310733 -75.34037954 35.08781489 -71.3125 30.625 C-70.6525 30.625 -69.9925 30.625 -69.3125 30.625 C-69.11011719 30.08359375 -68.90773437 29.5421875 -68.69921875 28.984375 C-62.53581591 18.49790932 -49.10350975 11.40030131 -38.3125 6.625 C-37.68504883 6.32303711 -37.05759766 6.02107422 -36.41113281 5.70996094 C-24.69410259 0.22702958 -12.6983868 0.04511135 0 0 Z " fill="#000000" transform="translate(290.3125,461.375)"/>
<path d="M0 0 C4.55555556 0.55555556 4.55555556 0.55555556 6 2 C7.60988191 2.1329878 9.22504425 2.20333763 10.83984375 2.24609375 C12.3103418 2.29540039 12.3103418 2.29540039 13.81054688 2.34570312 C15.89116828 2.4067832 17.97190397 2.46408969 20.05273438 2.51757812 C21.03435547 2.55173828 22.01597656 2.58589844 23.02734375 2.62109375 C24.38460571 2.65867798 24.38460571 2.65867798 25.76928711 2.69702148 C28 3 28 3 30 5 C31.7325 5.7115625 31.7325 5.7115625 33.5 6.4375 C37 8 37 8 39 11 C39.2314071 13.5545131 39.35184946 15.99770926 39.37109375 18.5546875 C39.38012222 19.29324982 39.3891507 20.03181213 39.39845276 20.79275513 C39.4129503 22.35447134 39.42184078 23.91624822 39.42553711 25.47802734 C39.43742563 27.8600982 39.48660117 30.2395703 39.53710938 32.62109375 C39.54657519 34.14061239 39.55380947 35.66014691 39.55859375 37.1796875 C39.57812607 37.88817841 39.59765839 38.59666931 39.61778259 39.32662964 C39.58350868 43.10857296 39.08587048 44.88456881 36.80786133 47.94677734 C33.70577633 50.21514834 32.30273224 50.63385973 28.515625 50.671875 C26.99001953 50.70861328 26.99001953 50.70861328 25.43359375 50.74609375 C24.38300781 50.74738281 23.33242188 50.74867188 22.25 50.75 C20.15098437 50.78299541 18.0520168 50.81926879 15.953125 50.859375 C15.02661133 50.86420898 14.10009766 50.86904297 13.14550781 50.87402344 C11.01798901 50.76052979 11.01798901 50.76052979 10 52 C7.79349344 52.10012401 5.58377614 52.1308118 3.375 52.1328125 C2.71290527 52.13376923 2.05081055 52.13472595 1.36865234 52.13571167 C-0.03352961 52.13639326 -1.4357147 52.13454042 -2.83789062 52.13037109 C-4.99095713 52.12502246 -7.14381502 52.1303167 -9.296875 52.13671875 C-10.65625046 52.13605796 -12.0156258 52.13477679 -13.375 52.1328125 C-14.62023437 52.13168457 -15.86546875 52.13055664 -17.1484375 52.12939453 C-20 52 -20 52 -21 51 C-23.84335048 50.90013025 -26.65697163 50.86122119 -29.5 50.875 C-30.29792969 50.87113281 -31.09585938 50.86726562 -31.91796875 50.86328125 C-35.7683932 50.4910039 -35.7683932 50.4910039 -39 52 C-40.73466775 52.14607728 -42.47486991 52.22738173 -44.21484375 52.28125 C-45.29443359 52.31863281 -46.37402344 52.35601563 -47.48632812 52.39453125 C-48.62521484 52.42933594 -49.76410156 52.46414063 -50.9375 52.5 C-57.95170722 52.72111336 -64.90661414 52.9925798 -71.88110352 53.79882812 C-77.11580439 54.29582012 -80.38760867 53.47702497 -85 51 C-87.27640151 46.92312088 -87.32141697 42.84608121 -87.3359375 38.28515625 C-87.3425943 37.5517955 -87.3492511 36.81843475 -87.35610962 36.06285095 C-87.36619958 34.51726781 -87.37092777 32.97164143 -87.37060547 31.42602539 C-87.37498049 29.07299506 -87.41133943 26.72183983 -87.44921875 24.36914062 C-87.45508757 22.86198553 -87.45905653 21.3548216 -87.4609375 19.84765625 C-87.47530853 19.15060074 -87.48967957 18.45354523 -87.50448608 17.73536682 C-87.45772501 12.68849995 -86.30163085 9.79532945 -83 6 C-78.3729024 3.15790165 -74.85612979 2.62018179 -69.46582031 2.59936523 C-68.37204826 2.58889664 -68.37204826 2.58889664 -67.25617981 2.57821655 C-64.86337521 2.55833646 -62.47100456 2.55874038 -60.078125 2.55859375 C-58.40996137 2.54681697 -56.74180825 2.53345201 -55.07366943 2.51856995 C-50.69493402 2.48246052 -46.31629199 2.46220052 -41.93743896 2.44702148 C-34.91475098 2.42214039 -27.89226905 2.38266358 -20.86977386 2.32512093 C-18.41567692 2.30876076 -15.96177421 2.30501232 -13.50762939 2.30210876 C-12.01061665 2.29233734 -10.51360699 2.28207486 -9.01660156 2.27124023 C-7.05185883 2.26482765 -7.05185883 2.26482765 -5.04742432 2.25828552 C-1.89070961 2.32061872 -1.89070961 2.32061872 0 0 Z " fill="#000000" transform="translate(617,522)"/>
<path d="M0 0 C3 0.125 3 0.125 4 1.125 C6.06923366 1.35407826 8.14547477 1.52043552 10.22265625 1.66015625 C11.48271484 1.74716797 12.74277344 1.83417969 14.04101562 1.92382812 C15.38150393 2.01181764 16.72199881 2.09970695 18.0625 2.1875 C19.40692976 2.27887529 20.75133131 2.37066675 22.09570312 2.46289062 C25.39687974 2.68770194 28.69828848 2.9082098 32 3.125 C32 3.785 32 4.445 32 5.125 C32.928125 5.063125 33.85625 5.00125 34.8125 4.9375 C40.00768741 4.95870485 45.26191299 5.99902834 50 8.125 C52.67245338 10.83144471 53.89782907 12.46581781 54.48583984 16.25952148 C54.47762207 17.41009033 54.4694043 18.56065918 54.4609375 19.74609375 C54.45707031 21.01130859 54.45320312 22.27652344 54.44921875 23.58007812 C54.41248047 25.55137695 54.41248047 25.55137695 54.375 27.5625 C54.37371094 28.87283203 54.37242187 30.18316406 54.37109375 31.53320312 C54.26350451 43.27836189 54.26350451 43.27836189 52 48.125 C47.51524397 51.83275149 43.11815965 51.56033458 37.57910156 51.54150391 C36.63697815 51.55008926 35.69485474 51.55867462 34.72418213 51.56752014 C31.61292036 51.59259004 28.50197859 51.59696169 25.390625 51.6015625 C23.22213777 51.61587805 21.05365963 51.63163606 18.88519287 51.64877319 C13.17421278 51.69064479 7.46328892 51.71562098 1.75219727 51.73626709 C-7.37428301 51.77205409 -16.50062373 51.83333408 -25.62696075 51.89475632 C-28.80695068 51.91374939 -31.98690359 51.9255519 -35.16693115 51.93618774 C-37.13179601 51.94640859 -39.09666015 51.95676722 -41.06152344 51.96728516 C-42.37576294 51.96884865 -42.37576294 51.96884865 -43.71655273 51.97044373 C-48.58283805 52.0024269 -53.30671364 52.30552655 -58.1307869 52.95947838 C-61.96646741 53.29913364 -64.5901759 51.74017984 -68 50.125 C-71.01737432 47.10762568 -70.36444844 43.66145212 -70.40625 39.609375 C-70.41765015 38.76078918 -70.42905029 37.91220337 -70.4407959 37.03790283 C-70.45970756 35.23902378 -70.47276854 33.44007526 -70.48046875 31.64111328 C-70.49983182 28.89881874 -70.56182752 26.15955563 -70.625 23.41796875 C-70.6380657 21.66928862 -70.64856444 19.92058705 -70.65625 18.171875 C-70.6809436 17.35603943 -70.70563721 16.54020386 -70.7310791 15.699646 C-70.69947609 11.62487248 -70.28359233 8.80679951 -67.64135742 5.60766602 C-63.3315077 1.92648337 -58.50312424 2.28958115 -53.08203125 2.35546875 C-52.02900314 2.34413406 -50.97597504 2.33279938 -49.89103699 2.32112122 C-46.53102217 2.29046106 -43.17260655 2.30020957 -39.8125 2.3125 C-36.47076457 2.29824695 -33.12918958 2.27567433 -29.78752136 2.25032043 C-27.71277806 2.23747149 -25.63796508 2.23246813 -23.56318665 2.23686218 C-15.48987138 2.23199652 -7.46008091 0.3108367 0 0 Z " fill="#000000" transform="translate(603,584.875)"/>
<path d="M0 0 C0.87749405 0.00559433 1.7549881 0.01118866 2.65907288 0.01695251 C3.61911728 0.02832748 4.57916168 0.03970245 5.56829834 0.05142212 C7.08827675 0.063424 7.08827675 0.063424 8.63896179 0.07566833 C11.99796213 0.10360857 15.35683508 0.13907305 18.71575928 0.17495728 C21.04882521 0.19672604 23.38189414 0.2181756 25.71496582 0.23931885 C30.61093983 0.2848592 35.50685949 0.33407906 40.402771 0.38589478 C46.67171364 0.45197768 52.94069924 0.50931909 59.20975113 0.56392479 C64.03110302 0.60683547 68.85240262 0.65424624 73.67369843 0.703022 C75.98450175 0.72589073 78.29531892 0.74740349 80.60614777 0.76752853 C83.84229471 0.79642172 87.07832307 0.83133633 90.31439209 0.86782837 C91.26633957 0.87515488 92.21828705 0.88248138 93.19908142 0.89002991 C98.13055975 0.95236315 102.83670791 1.25963737 107.70013428 2.08901978 C108.19513428 3.57401978 108.19513428 3.57401978 108.70013428 5.08901978 C109.36013428 5.08901978 110.02013428 5.08901978 110.70013428 5.08901978 C112.83577992 9.36031106 111.92717106 14.97496559 111.94036865 19.67276001 C111.95001759 21.75138234 111.98101254 23.82899135 112.01263428 25.90737915 C112.01917048 27.24265977 112.02441853 28.57794743 112.02825928 29.91323853 C112.03760498 31.12068726 112.04695068 32.32813599 112.05657959 33.57217407 C111.62720536 37.80856848 110.73577055 40.35021916 108.70013428 44.08901978 C105.20134258 46.57244775 101.74757344 46.35841245 97.56072998 46.39199829 C96.84974152 46.40043762 96.13875305 46.40887695 95.40621948 46.41757202 C93.06277787 46.44330503 90.71946199 46.45547716 88.37591553 46.46792603 C86.74733991 46.48410123 85.11877399 46.50128125 83.49021912 46.51942444 C79.20810412 46.56507797 74.92597625 46.59990646 70.64373779 46.63162231 C63.77856682 46.68353949 56.91353763 46.74848266 50.04854393 46.81983757 C47.64598742 46.84273473 45.24344918 46.85896113 42.84083557 46.8745575 C41.37767329 46.88795771 39.91451294 46.90157194 38.45135498 46.91543579 C36.52752739 46.9297036 36.52752739 46.9297036 34.56483459 46.94425964 C31.80277132 46.76287625 31.80277132 46.76287625 30.70013428 48.08901978 C28.34759029 48.28631886 26.02239837 48.42184548 23.66497803 48.51089478 C22.95289688 48.53879089 22.24081573 48.56668701 21.50715637 48.59542847 C19.9932163 48.65195171 18.47916485 48.70555369 16.96502686 48.75650024 C14.67076158 48.83784522 12.37821438 48.94164076 10.0848999 49.04605103 C-3.99145209 49.58922377 -3.99145209 49.58922377 -10.29986572 46.08901978 C-12.23736572 43.15151978 -12.23736572 43.15151978 -13.29986572 40.08901978 C-13.52674072 39.47026978 -13.75361572 38.85151978 -13.98736572 38.21401978 C-14.98651813 31.41978339 -14.15891623 24.27413578 -13.61236572 17.46401978 C-13.55886963 16.5487854 -13.50537354 15.63355103 -13.45025635 14.69058228 C-12.93877363 8.5349989 -11.87549546 5.3285088 -7.29986572 1.08901978 C-4.50109398 0.15609586 -2.88500823 -0.02647695 0 0 Z " fill="#010101" transform="translate(545.2998657226563,462.9109802246094)"/>
<path d="M0 0 C0.90418167 -0.00701431 1.80836334 -0.01402863 2.73994446 -0.02125549 C3.72961212 -0.01361176 4.71927979 -0.00596802 5.73893738 0.00190735 C6.78312332 -0.00174332 7.82730927 -0.00539398 8.90313721 -0.00915527 C12.36443714 -0.01727905 15.82527151 -0.00363239 19.2865448 0.01094055 C21.68927002 0.01145906 24.09199566 0.01094173 26.49472046 0.00942993 C31.53615127 0.00951975 36.57742248 0.01996571 41.61882019 0.03804016 C48.07855107 0.06069091 54.53804787 0.06127893 60.9978075 0.05452251 C65.96236243 0.05117869 70.9268641 0.05782108 75.89140892 0.06765175 C78.27282622 0.07149963 80.65424945 0.07265367 83.03566933 0.0710659 C86.36786269 0.07069459 89.69975764 0.08333558 93.03190613 0.0995636 C94.50729858 0.09584747 94.50729858 0.09584747 96.01249695 0.09205627 C100.93552744 0.13027363 104.96289115 0.4358152 109.57951355 2.3742218 C109.24951355 3.0342218 108.91951355 3.6942218 108.57951355 4.3742218 C108.08451355 3.8792218 108.08451355 3.8792218 107.57951355 3.3742218 C106.11202395 3.27857058 104.63994471 3.25233871 103.16934204 3.25396729 C101.74108093 3.25190529 101.74108093 3.25190529 100.28396606 3.24980164 C99.23092789 3.25339691 98.17788971 3.25699219 97.09294128 3.26069641 C95.99064178 3.26055038 94.88834229 3.26040436 93.75263977 3.26025391 C90.08944263 3.26095359 86.42629561 3.26874856 82.7631073 3.27656555 C80.23104887 3.27842954 77.69899007 3.27985353 75.16693115 3.28085327 C69.17103106 3.28428834 63.17515265 3.29217912 57.17926127 3.30220276 C50.35470297 3.31336503 43.53014383 3.31887463 36.70557868 3.3238982 C22.66354661 3.33436176 8.62153176 3.35216101 -5.42048645 3.3742218 C-5.42048645 6.6742218 -5.42048645 9.9742218 -5.42048645 13.3742218 C-6.41048645 13.8692218 -6.41048645 13.8692218 -7.42048645 14.3742218 C-7.50162751 12.60414466 -7.5597415 10.83300082 -7.60798645 9.0617218 C-7.64279114 8.07558899 -7.67759583 7.08945618 -7.7134552 6.07344055 C-7.42048645 3.3742218 -7.42048645 3.3742218 -6.17845631 1.72890949 C-3.96032449 0.01962201 -2.78102359 -0.0005936 0 0 Z " fill="#0C100F" transform="translate(543.4204864501953,529.6257781982422)"/>
<path d="M0 0 C6.27 0 12.54 0 19 0 C19 0.66 19 1.32 19 2 C16.58303128 2.05411124 14.16728213 2.09372278 11.75 2.125 C11.06808594 2.14175781 10.38617188 2.15851562 9.68359375 2.17578125 C5.61462923 2.21528576 3.75100679 1.87550339 0 0 Z " fill="#000000" transform="translate(493,651)"/>
<path d="M0 0 C3.83520308 3.28731693 6.32465344 7.25147171 8 12 C7.67 12.66 7.34 13.32 7 14 C5.82508418 12.23462904 4.66031316 10.46250287 3.5 8.6875 C2.8503125 7.70136719 2.200625 6.71523438 1.53125 5.69921875 C0 3 0 3 0 0 Z " fill="#121212" transform="translate(187,598)"/>
<path d="M0 0 C0.66 0.66 1.32 1.32 2 2 C1.625 4.125 1.625 4.125 1 6 C0.67 6 0.34 6 0 6 C0 4.02 0 2.04 0 0 Z " fill="#000000" transform="translate(527,513)"/>
</svg>
